<svg xmlns="http://www.w3.org/2000/svg" width="1600" height="470" viewBox="0 0 1600 470"><defs>
  <linearGradient id="aria" x1="0" y1="0" x2="1" y2="1">
    <stop offset="0" stop-color="#D9892B"/><stop offset="0.55" stop-color="#BC5587"/><stop offset="1" stop-color="#7A1E52"/>
  </linearGradient>
  <linearGradient id="ariaH" x1="0" y1="0" x2="1" y2="0">
    <stop offset="0" stop-color="#D9892B"/><stop offset="0.5" stop-color="#BC5587"/><stop offset="1" stop-color="#7A1E52"/>
  </linearGradient>
</defs><rect x="48.0" y="87" width="329.0" height="300" rx="18" fill="#0E1525" opacity="0.05"/><rect x="46.0" y="82" width="329.0" height="300" rx="18" fill="#FFFFFF" stroke="#E7E8F0" stroke-width="1.4"/><rect x="72.0" y="108" width="34" height="34" rx="10" fill="url(#aria)"/><text x="89.0" y="126.0" font-family="Poppins,Lato" font-weight="700" font-size="17" fill="#fff" text-anchor="middle" dominant-baseline="central">1</text><rect x="72.0" y="156" width="52" height="52" rx="16" fill="#F4E7EF"/><g transform="translate(82.9,166.9) scale(1.2567)"><path d="M4 6.5A2.3 2.3 0 0 1 6.3 4.2h7A2.3 2.3 0 0 1 15.6 6.5v4.2A2.3 2.3 0 0 1 13.3 13H8.5l-3.2 2.4v-2.4H6.3A2.3 2.3 0 0 1 4 10.7z" fill="#7A1E52"/><path d="M11 14.4c.25.9 1.05 1.6 2 1.6h4.4l2.6 2v-2h.2c.9 0 1.6-.7 1.6-1.6v-3.3c0-.9-.7-1.6-1.6-1.6h-2.3" fill="none" stroke="#D9892B" stroke-width="1.9" stroke-linejoin="round" stroke-linecap="round"/></g><text x="72.0" y="242" font-family="Lato" font-weight="700" font-size="22" fill="#0E1525" text-anchor="start">El cliente</text><text x="72.0" y="270" font-family="Lato" font-weight="700" font-size="22" fill="#0E1525" text-anchor="start">llega</text><text x="72.0" y="306" font-family="Lato" font-weight="400" font-size="15.5" fill="#5B6472" text-anchor="start">Por voz, WhatsApp,</text><text x="72.0" y="327" font-family="Lato" font-weight="400" font-size="15.5" fill="#5B6472" text-anchor="start">chat o email — todo</text><text x="72.0" y="348" font-family="Lato" font-weight="400" font-size="15.5" fill="#5B6472" text-anchor="start">entra a un solo lugar.</text><path d="M389.0 232.0 H416.0" stroke="#D9892B" stroke-width="2.6" stroke-linecap="round"/><path d="M412.0 226.0 L422.0 232.0 L412.0 238.0" fill="none" stroke="#D9892B" stroke-width="2.6" stroke-linecap="round" stroke-linejoin="round"/><rect x="441.0" y="87" width="329.0" height="300" rx="18" fill="#0E1525" opacity="0.05"/><rect x="439.0" y="82" width="329.0" height="300" rx="18" fill="#FFFFFF" stroke="#E7E8F0" stroke-width="1.4"/><rect x="465.0" y="108" width="34" height="34" rx="10" fill="url(#aria)"/><text x="482.0" y="126.0" font-family="Poppins,Lato" font-weight="700" font-size="17" fill="#fff" text-anchor="middle" dominant-baseline="central">2</text><rect x="465.0" y="156" width="52" height="52" rx="16" fill="#F4E7EF"/><g transform="translate(475.9,166.9) scale(1.2567)"><path d="M5 14v-2a7 7 0 0 1 14 0v2" fill="none" stroke="#7A1E52" stroke-width="2" stroke-linecap="round"/><rect x="3" y="12.5" width="3.4" height="6" rx="1.6" fill="#7A1E52"/><rect x="17.6" y="12.5" width="3.4" height="6" rx="1.6" fill="#7A1E52"/><path d="M18 18.2c0 2-1.8 3.3-3.6 3.3" fill="none" stroke="#7A1E52" stroke-width="2" stroke-linecap="round"/><circle cx="13.4" cy="21.5" r="1.2" fill="#7A1E52"/></g><text x="465.0" y="242" font-family="Lato" font-weight="700" font-size="22" fill="#0E1525" text-anchor="start">Lo atiende</text><text x="465.0" y="270" font-family="Lato" font-weight="700" font-size="22" fill="#0E1525" text-anchor="start">un agente</text><text x="465.0" y="306" font-family="Lato" font-weight="400" font-size="15.5" fill="#5B6472" text-anchor="start">Con la vista 360° del</text><text x="465.0" y="327" font-family="Lato" font-weight="400" font-size="15.5" fill="#5B6472" text-anchor="start">cliente: su historial</text><text x="465.0" y="348" font-family="Lato" font-weight="400" font-size="15.5" fill="#5B6472" text-anchor="start">y datos a la mano.</text><path d="M782.0 232.0 H809.0" stroke="#D9892B" stroke-width="2.6" stroke-linecap="round"/><path d="M805.0 226.0 L815.0 232.0 L805.0 238.0" fill="none" stroke="#D9892B" stroke-width="2.6" stroke-linecap="round" stroke-linejoin="round"/><rect x="834.0" y="87" width="329.0" height="300" rx="18" fill="#0E1525" opacity="0.05"/><rect x="832.0" y="82" width="329.0" height="300" rx="18" fill="#FFFFFF" stroke="#E7E8F0" stroke-width="1.4"/><rect x="858.0" y="108" width="34" height="34" rx="10" fill="url(#aria)"/><text x="875.0" y="126.0" font-family="Poppins,Lato" font-weight="700" font-size="17" fill="#fff" text-anchor="middle" dominant-baseline="central">3</text><rect x="858.0" y="156" width="52" height="52" rx="16" fill="#FBEEDD"/><g transform="translate(868.9,166.9) scale(1.2567)"><path d="M12 2.6c.55 4.2 1.2 5.1 5.4 5.6-4.2.55-5.0 1.4-5.4 5.6-.4-4.2-1.2-5.05-5.4-5.6 4.2-.5 4.85-1.4 5.4-5.6z" fill="#D9892B"/><path d="M18.2 13.4c.3 2.1.6 2.5 2.7 2.8-2.1.3-2.45.75-2.7 2.8-.25-2.05-.6-2.5-2.7-2.8 2.1-.3 2.4-.7 2.7-2.8z" fill="#D9892B"/></g><text x="858.0" y="242" font-family="Lato" font-weight="700" font-size="22" fill="#0E1525" text-anchor="start">La IA lo</text><text x="858.0" y="270" font-family="Lato" font-weight="700" font-size="22" fill="#0E1525" text-anchor="start">ayuda</text><text x="858.0" y="306" font-family="Lato" font-weight="400" font-size="15.5" fill="#5B6472" text-anchor="start">Sugiere respuestas y</text><text x="858.0" y="327" font-family="Lato" font-weight="400" font-size="15.5" fill="#5B6472" text-anchor="start">resume la conversación</text><text x="858.0" y="348" font-family="Lato" font-weight="400" font-size="15.5" fill="#5B6472" text-anchor="start">en tiempo real.</text><path d="M1175.0 232.0 H1202.0" stroke="#D9892B" stroke-width="2.6" stroke-linecap="round"/><path d="M1198.0 226.0 L1208.0 232.0 L1198.0 238.0" fill="none" stroke="#D9892B" stroke-width="2.6" stroke-linecap="round" stroke-linejoin="round"/><rect x="1227.0" y="87" width="329.0" height="300" rx="18" fill="#0E1525" opacity="0.05"/><rect x="1225.0" y="82" width="329.0" height="300" rx="18" fill="#FFFFFF" stroke="#E7E8F0" stroke-width="1.4"/><rect x="1251.0" y="108" width="34" height="34" rx="10" fill="url(#aria)"/><text x="1268.0" y="126.0" font-family="Poppins,Lato" font-weight="700" font-size="17" fill="#fff" text-anchor="middle" dominant-baseline="central">4</text><rect x="1251.0" y="156" width="52" height="52" rx="16" fill="#E4F4EA"/><g transform="translate(1261.9,166.9) scale(1.2567)"><circle cx="12" cy="12" r="9.2" fill="#2E9E5B"/><path d="M7.7 12.3 l3 3 l5.6-6.4" fill="none" stroke="#fff" stroke-width="2.4" stroke-linecap="round" stroke-linejoin="round"/></g><text x="1251.0" y="242" font-family="Lato" font-weight="700" font-size="22" fill="#0E1525" text-anchor="start">Se resuelve</text><text x="1251.0" y="270" font-family="Lato" font-weight="700" font-size="22" fill="#0E1525" text-anchor="start">y se registra</text><text x="1251.0" y="306" font-family="Lato" font-weight="400" font-size="15.5" fill="#5B6472" text-anchor="start">La nota y la</text><text x="1251.0" y="327" font-family="Lato" font-weight="400" font-size="15.5" fill="#5B6472" text-anchor="start">clasificación quedan</text><text x="1251.0" y="348" font-family="Lato" font-weight="400" font-size="15.5" fill="#5B6472" text-anchor="start">guardadas solas.</text></svg>